<?xml version="1.0" encoding="UTF-8"?>
<svg xmlns="http://www.w3.org/2000/svg" xmlns:xlink="http://www.w3.org/1999/xlink" width="80px" height="80px" viewBox="0 0 80 80" version="1.1">
<g id="surface1">
<path style=" stroke:none;fill-rule:nonzero;fill:rgb(7.45098%,7.45098%,7.45098%);fill-opacity:1;" d="M 55.769531 3.660156 L 51.15625 3.660156 L 55.957031 8.867188 L 55.957031 11.347656 L 46.070312 11.347656 L 46.070312 8.445312 L 50.871094 8.445312 L 46.070312 3.234375 L 46.070312 0.753906 L 55.769531 0.753906 Z M 44.109375 3.660156 L 39.496094 3.660156 L 44.296875 8.867188 L 44.296875 11.347656 L 34.410156 11.347656 L 34.410156 8.445312 L 39.207031 8.445312 L 34.410156 3.234375 L 34.410156 0.753906 L 44.109375 0.753906 Z M 32.5625 3.777344 L 27.585938 3.777344 L 27.585938 8.324219 L 32.5625 8.324219 L 32.5625 11.347656 L 24.042969 11.347656 L 24.042969 0.753906 L 32.5625 0.753906 Z M 32.5625 3.777344 "/>
<path style=" stroke:none;fill-rule:nonzero;fill:rgb(8.235294%,44.705882%,71.372549%);fill-opacity:1;" d="M 17.257812 72.941406 L 12.199219 16.183594 L 67.800781 16.183594 L 62.738281 72.933594 L 39.964844 79.246094 Z M 17.257812 72.941406 "/>
<path style=" stroke:none;fill-rule:nonzero;fill:rgb(20%,66.27451%,86.27451%);fill-opacity:1;" d="M 40 74.421875 L 58.398438 69.320312 L 62.730469 20.824219 L 40 20.824219 Z M 40 74.421875 "/>
<path style=" stroke:none;fill-rule:nonzero;fill:rgb(100%,100%,100%);fill-opacity:1;" d="M 40 41.386719 L 49.210938 41.386719 L 49.847656 34.257812 L 40 34.257812 L 40 27.296875 L 57.457031 27.296875 L 57.289062 29.164062 L 55.578125 48.347656 L 40 48.347656 Z M 40 41.386719 "/>
<path style=" stroke:none;fill-rule:nonzero;fill:rgb(92.156863%,92.156863%,92.156863%);fill-opacity:1;" d="M 40.042969 59.464844 L 40.011719 59.476562 L 32.257812 57.382812 L 31.761719 51.828125 L 24.777344 51.828125 L 25.75 62.757812 L 40.011719 66.71875 L 40.042969 66.707031 Z M 40.042969 59.464844 "/>
<path style=" stroke:none;fill-rule:nonzero;fill:rgb(100%,100%,100%);fill-opacity:1;" d="M 48.621094 48.054688 L 47.78125 57.375 L 40.015625 59.472656 L 40.015625 66.714844 L 54.289062 62.757812 L 54.394531 61.582031 L 55.605469 48.054688 Z M 48.621094 48.054688 "/>
<path style=" stroke:none;fill-rule:nonzero;fill:rgb(92.156863%,92.156863%,92.156863%);fill-opacity:1;" d="M 40.023438 27.296875 L 40.023438 34.257812 L 23.210938 34.257812 L 23.070312 32.695312 L 22.753906 29.164062 L 22.585938 27.296875 Z M 40 41.386719 L 40 48.347656 L 32.34375 48.347656 L 32.207031 46.785156 L 31.890625 43.253906 L 31.722656 41.386719 Z M 40 41.386719 "/>
</g>
</svg>
