<?xml version="1.0" encoding="UTF-8"?>
<svg xmlns="http://www.w3.org/2000/svg" xmlns:xlink="http://www.w3.org/1999/xlink" width="80px" height="80px" viewBox="0 0 80 80" version="1.1">
<g id="surface1">
<path style=" stroke:none;fill-rule:nonzero;fill:rgb(19.215686%,14.509804%,10.980392%);fill-opacity:1;" d="M 47.75 34.796875 C 46.039062 34.796875 44.765625 35.636719 44.765625 37.660156 C 44.765625 39.183594 45.601562 40.238281 47.65625 40.238281 C 49.394531 40.238281 50.578125 39.214844 50.578125 37.597656 C 50.578125 35.761719 49.519531 34.796875 47.75 34.796875 Z M 44.328125 49.074219 C 43.921875 49.570312 43.519531 50.097656 43.519531 50.71875 C 43.519531 51.964844 45.105469 52.335938 47.28125 52.335938 C 49.085938 52.335938 51.542969 52.210938 51.542969 50.535156 C 51.542969 49.539062 50.359375 49.476562 48.867188 49.382812 Z M 53.53125 34.890625 C 54.089844 35.605469 54.683594 36.601562 54.683594 38.03125 C 54.683594 41.484375 51.976562 43.503906 48.058594 43.503906 C 47.0625 43.503906 46.160156 43.382812 45.601562 43.226562 L 44.578125 44.875 L 47.625 45.058594 C 53.003906 45.402344 56.175781 45.558594 56.175781 49.691406 C 56.175781 53.269531 53.035156 55.289062 47.625 55.289062 C 41.996094 55.289062 39.847656 53.859375 39.847656 51.402344 C 39.847656 50.003906 40.472656 49.257812 41.558594 48.230469 C 40.53125 47.796875 40.191406 47.019531 40.191406 46.179688 C 40.191406 45.496094 40.535156 44.875 41.09375 44.28125 C 41.652344 43.691406 42.277344 43.101562 43.019531 42.417969 C 41.496094 41.671875 40.347656 40.054688 40.347656 37.75 C 40.347656 34.175781 42.710938 31.71875 47.46875 31.71875 C 48.804688 31.71875 49.613281 31.84375 50.328125 32.03125 L 56.394531 32.03125 L 56.394531 34.675781 Z M 61.863281 29.242188 C 60.089844 29.242188 59.066406 28.214844 59.066406 26.441406 C 59.066406 24.671875 60.089844 23.707031 61.863281 23.707031 C 63.667969 23.707031 64.695312 24.671875 64.695312 26.441406 C 64.695312 28.214844 63.667969 29.242188 61.863281 29.242188 Z M 57.851562 47.929688 L 57.851562 45.472656 L 59.4375 45.253906 C 59.875 45.191406 59.9375 45.101562 59.9375 44.632812 L 59.9375 35.492188 C 59.9375 35.148438 59.84375 34.929688 59.53125 34.839844 L 57.851562 34.246094 L 58.195312 31.730469 L 64.632812 31.730469 L 64.632812 44.632812 C 64.632812 45.132812 64.660156 45.191406 65.128906 45.257812 L 66.714844 45.472656 L 66.714844 47.929688 Z M 79.011719 46.722656 C 77.675781 47.375 75.714844 47.964844 73.941406 47.964844 C 70.242188 47.964844 68.84375 46.476562 68.84375 42.960938 L 68.84375 34.8125 C 68.84375 34.625 68.84375 34.5 68.59375 34.5 L 66.417969 34.5 L 66.417969 31.734375 C 69.15625 31.421875 70.242188 30.054688 70.585938 26.664062 L 73.539062 26.664062 L 73.539062 31.082031 C 73.539062 31.296875 73.539062 31.394531 73.789062 31.394531 L 78.171875 31.394531 L 78.171875 34.503906 L 73.539062 34.503906 L 73.539062 41.933594 C 73.539062 43.769531 73.976562 44.484375 75.65625 44.484375 C 76.527344 44.484375 77.425781 44.265625 78.171875 43.984375 Z M 79.011719 46.722656 "/>
<path style=" stroke:none;fill-rule:nonzero;fill:rgb(95.294118%,30.980392%,16.078431%);fill-opacity:1;" d="M 32.9375 38.5625 L 18.71875 24.34375 C 17.902344 23.527344 16.574219 23.527344 15.753906 24.34375 L 12.800781 27.296875 L 16.546875 31.042969 C 17.417969 30.75 18.414062 30.945312 19.109375 31.640625 C 19.804688 32.339844 20 33.34375 19.699219 34.21875 L 23.308594 37.828125 C 24.183594 37.527344 25.191406 37.722656 25.886719 38.417969 C 26.863281 39.394531 26.863281 40.972656 25.886719 41.949219 C 24.914062 42.921875 23.332031 42.921875 22.359375 41.949219 C 21.625 41.214844 21.445312 40.136719 21.816406 39.234375 L 18.449219 35.867188 L 18.449219 44.726562 C 18.6875 44.84375 18.910156 45 19.109375 45.199219 C 20.082031 46.171875 20.082031 47.75 19.109375 48.726562 C 18.132812 49.703125 16.554688 49.703125 15.578125 48.726562 C 14.605469 47.75 14.605469 46.171875 15.578125 45.199219 C 15.820312 44.957031 16.097656 44.777344 16.398438 44.652344 L 16.398438 35.714844 C 16.097656 35.59375 15.820312 35.410156 15.578125 35.167969 C 14.839844 34.429688 14.664062 33.347656 15.042969 32.441406 L 11.351562 28.75 L 1.601562 38.496094 C 0.78125 39.316406 0.78125 40.644531 1.601562 41.464844 L 15.820312 55.679688 C 16.640625 56.5 17.964844 56.5 18.785156 55.679688 L 32.9375 41.527344 C 33.757812 40.710938 33.757812 39.382812 32.9375 38.5625 Z M 32.9375 38.5625 "/>
</g>
</svg>
