<?xml version="1.0" encoding="UTF-8"?>
<svg xmlns="http://www.w3.org/2000/svg" xmlns:xlink="http://www.w3.org/1999/xlink" width="80px" height="80px" viewBox="0 0 80 80" version="1.1">
<g id="surface1">
<path style=" stroke:none;fill-rule:nonzero;fill:rgb(89.411765%,30.196078%,14.901961%);fill-opacity:1;" d="M 17.410156 72.722656 L 12.382812 16.339844 L 67.617188 16.339844 L 62.585938 72.710938 L 39.964844 78.984375 Z M 17.410156 72.722656 "/>
<path style=" stroke:none;fill-rule:nonzero;fill:rgb(94.509804%,39.607843%,16.078431%);fill-opacity:1;" d="M 40 74.191406 L 58.277344 69.121094 L 62.578125 20.949219 L 40 20.949219 Z M 40 74.191406 "/>
<path style=" stroke:none;fill-rule:nonzero;fill:rgb(92.156863%,92.156863%,92.156863%);fill-opacity:1;" d="M 40 41.859375 L 30.847656 41.859375 L 30.21875 34.78125 L 40 34.78125 L 40 27.863281 L 22.660156 27.863281 L 22.824219 29.71875 L 24.527344 48.777344 L 40 48.777344 Z M 40 59.820312 L 39.96875 59.828125 L 32.269531 57.746094 L 31.777344 52.234375 L 24.835938 52.234375 L 25.804688 63.089844 L 39.96875 67.023438 L 40 67.015625 Z M 40 59.820312 "/>
<path style=" stroke:none;fill-rule:nonzero;fill:rgb(0%,0%,0%);fill-opacity:1;" d="M 17.519531 1.015625 L 21.035156 1.015625 L 21.035156 4.488281 L 24.25 4.488281 L 24.25 1.015625 L 27.765625 1.015625 L 27.765625 11.53125 L 24.25 11.53125 L 24.25 8.011719 L 21.035156 8.011719 L 21.035156 11.53125 L 17.519531 11.53125 Z M 32.386719 4.503906 L 29.292969 4.503906 L 29.292969 1.015625 L 38.996094 1.015625 L 38.996094 4.503906 L 35.898438 4.503906 L 35.898438 11.53125 L 32.386719 11.53125 Z M 40.535156 1.015625 L 44.199219 1.015625 L 46.453125 4.710938 L 48.703125 1.015625 L 52.371094 1.015625 L 52.371094 11.53125 L 48.871094 11.53125 L 48.871094 6.320312 L 46.453125 10.058594 L 46.390625 10.058594 L 43.972656 6.320312 L 43.972656 11.53125 L 40.535156 11.53125 Z M 54.121094 1.015625 L 57.632812 1.015625 L 57.632812 8.054688 L 62.578125 8.054688 L 62.578125 11.53125 L 54.121094 11.53125 Z M 54.121094 1.015625 "/>
<path style=" stroke:none;fill-rule:nonzero;fill:rgb(100%,100%,100%);fill-opacity:1;" d="M 39.976562 41.859375 L 39.976562 48.777344 L 48.492188 48.777344 L 47.6875 57.742188 L 39.976562 59.824219 L 39.976562 67.019531 L 54.152344 63.089844 L 54.257812 61.921875 L 55.882812 43.71875 L 56.050781 41.859375 Z M 39.976562 27.863281 L 39.976562 34.78125 L 56.679688 34.78125 L 56.816406 33.226562 L 57.132812 29.71875 L 57.296875 27.863281 Z M 39.976562 27.863281 "/>
</g>
</svg>
