<?xml version="1.0" encoding="UTF-8"?>
<svg xmlns="http://www.w3.org/2000/svg" xmlns:xlink="http://www.w3.org/1999/xlink" width="80px" height="80px" viewBox="0 0 80 80" version="1.1">
<g id="surface1">
<path style=" stroke:none;fill-rule:nonzero;fill:rgb(94.117647%,85.882353%,30.980392%);fill-opacity:1;" d="M 0.878906 0.878906 L 79.121094 0.878906 L 79.121094 79.121094 L 0.878906 79.121094 Z M 0.878906 0.878906 "/>
<path style=" stroke:none;fill-rule:nonzero;fill:rgb(19.607843%,20%,18.823529%);fill-opacity:1;" d="M 72.71875 60.460938 C 72.144531 56.890625 69.816406 53.890625 62.921875 51.097656 C 60.527344 49.996094 57.855469 49.207031 57.0625 47.394531 C 56.777344 46.335938 56.742188 45.742188 56.921875 45.101562 C 57.433594 43.027344 59.910156 42.378906 61.875 42.976562 C 63.136719 43.398438 64.335938 44.375 65.054688 45.929688 C 68.433594 43.742188 68.425781 43.757812 70.78125 42.253906 C 69.921875 40.914062 69.460938 40.296875 68.894531 39.726562 C 66.863281 37.457031 64.097656 36.289062 59.671875 36.378906 L 57.367188 36.675781 C 55.15625 37.234375 53.054688 38.394531 51.820312 39.949219 C 48.113281 44.152344 49.171875 51.507812 53.679688 54.53125 C 58.117188 57.867188 64.640625 58.625 65.472656 61.738281 C 66.285156 65.554688 62.671875 66.789062 59.078125 66.351562 C 56.429688 65.800781 54.957031 64.453125 53.367188 62.007812 C 50.4375 63.703125 50.4375 63.703125 47.421875 65.4375 C 48.136719 67 48.886719 67.703125 50.085938 69.058594 C 55.753906 74.808594 69.9375 74.523438 72.480469 65.824219 C 72.582031 65.523438 73.265625 63.53125 72.71875 60.460938 Z M 43.414062 36.839844 L 36.09375 36.839844 L 36.066406 55.757812 C 36.066406 59.78125 36.273438 63.472656 35.621094 64.601562 C 34.546875 66.828125 31.773438 66.550781 30.511719 66.121094 C 29.222656 65.488281 28.570312 64.585938 27.8125 63.316406 C 27.601562 62.953125 27.445312 62.667969 27.394531 62.648438 L 21.445312 66.289062 C 22.433594 68.320312 23.890625 70.082031 25.757812 71.230469 C 28.546875 72.902344 32.292969 73.414062 36.214844 72.515625 C 38.765625 71.773438 40.96875 70.234375 42.121094 67.890625 C 43.785156 64.816406 43.429688 61.101562 43.414062 56.988281 C 43.449219 50.277344 43.414062 43.570312 43.414062 36.839844 Z M 43.414062 36.839844 "/>
</g>
</svg>
