<?xml version="1.0" encoding="UTF-8"?>
<svg xmlns="http://www.w3.org/2000/svg" xmlns:xlink="http://www.w3.org/1999/xlink" width="212px" height="80px" viewBox="0 0 212 80" version="1.1">
<g id="surface1">
<path style=" stroke:none;fill-rule:evenodd;fill:rgb(80%,0%,0%);fill-opacity:1;" d="M 181.875 66.839844 L 181.875 76.179688 L 198.742188 76.179688 C 202.199219 76.179688 208.132812 73.652344 208.335938 66.582031 L 208.335938 62.96875 C 208.335938 56.929688 203.386719 53.367188 198.742188 53.367188 L 190.335938 53.367188 L 190.335938 49.03125 L 206.996094 49.03125 L 206.996094 39.640625 L 191.007812 39.640625 C 186.878906 39.640625 181.359375 43.046875 181.359375 49.394531 L 181.359375 52.644531 C 181.359375 58.992188 186.828125 62.246094 191.007812 62.246094 C 202.613281 62.296875 188.222656 62.246094 198.949219 62.246094 L 198.949219 66.785156 M 91.503906 64.566406 C 91.503906 64.566406 100.53125 63.792969 100.53125 52.128906 C 100.53125 40.464844 89.597656 39.378906 89.597656 39.378906 L 69.894531 39.378906 L 69.894531 76.179688 L 79.796875 76.179688 L 79.796875 67.304688 L 88.359375 76.179688 L 103.007812 76.179688 Z M 87.6875 57.03125 L 79.796875 57.03125 L 79.796875 48.621094 L 87.738281 48.621094 C 87.738281 48.621094 89.957031 49.445312 89.957031 52.800781 C 89.957031 56.15625 87.6875 57.03125 87.6875 57.03125 Z M 124.980469 39.640625 L 114.921875 39.640625 C 107.753906 39.640625 105.328125 46.140625 105.328125 49.238281 L 105.328125 76.179688 L 115.386719 76.179688 L 115.386719 69.730469 L 124.828125 69.730469 L 124.828125 76.179688 L 134.574219 76.179688 L 134.574219 49.238281 C 134.574219 41.394531 127.457031 39.640625 124.980469 39.640625 Z M 124.828125 59.304688 L 115.335938 59.304688 L 115.335938 50.375 C 115.335938 50.375 115.335938 48.359375 118.484375 48.359375 L 121.9375 48.359375 C 124.722656 48.359375 124.777344 50.375 124.777344 50.375 L 124.777344 59.304688 Z M 124.828125 59.304688 "/>
<path style=" stroke:none;fill-rule:evenodd;fill:rgb(80%,0%,0%);fill-opacity:1;" d="M 139.167969 39.640625 L 149.636719 39.640625 L 149.636719 76.179688 L 139.167969 76.179688 Z M 139.167969 39.640625 "/>
<path style=" stroke:none;fill-rule:evenodd;fill:rgb(80%,0%,0%);fill-opacity:1;" d="M 164.339844 66.734375 L 164.339844 39.640625 L 153.917969 39.640625 L 153.917969 76.179688 L 178.421875 76.179688 L 178.421875 66.734375 Z M 164.339844 66.734375 "/>
<path style=" stroke:none;fill-rule:evenodd;fill:rgb(80%,0%,0%);fill-opacity:1;" d="M 7.738281 76.179688 L 48.488281 76.179688 C 48.488281 76.179688 40.699219 40.621094 66.488281 26.21875 C 72.109375 23.484375 90.007812 13.265625 119.308594 34.941406 C 120.238281 34.167969 121.113281 33.546875 121.113281 33.546875 C 121.113281 33.546875 94.289062 6.761719 64.425781 9.753906 C 49.414062 11.097656 30.949219 24.773438 20.117188 42.839844 C 9.285156 60.902344 7.738281 76.179688 7.738281 76.179688 Z M 7.738281 76.179688 "/>
<path style=" stroke:none;fill-rule:evenodd;fill:rgb(80%,0%,0%);fill-opacity:1;" d="M 7.738281 76.179688 L 48.488281 76.179688 C 48.488281 76.179688 40.699219 40.621094 66.488281 26.21875 C 72.109375 23.484375 90.007812 13.265625 119.308594 34.941406 C 120.238281 34.167969 121.113281 33.546875 121.113281 33.546875 C 121.113281 33.546875 94.289062 6.761719 64.425781 9.753906 C 49.414062 11.097656 30.949219 24.773438 20.117188 42.839844 C 9.285156 60.902344 7.738281 76.179688 7.738281 76.179688 Z M 7.738281 76.179688 "/>
<path style=" stroke:none;fill-rule:evenodd;fill:rgb(80%,0%,0%);fill-opacity:1;" d="M 7.738281 76.179688 L 48.488281 76.179688 C 48.488281 76.179688 40.699219 40.621094 66.488281 26.21875 C 72.109375 23.484375 90.007812 13.265625 119.308594 34.941406 C 120.238281 34.167969 121.113281 33.546875 121.113281 33.546875 C 121.113281 33.546875 94.289062 6.761719 64.425781 9.753906 C 49.363281 11.097656 30.898438 24.773438 20.066406 42.839844 C 9.234375 60.902344 7.738281 76.179688 7.738281 76.179688 Z M 92.640625 12.644531 L 92.847656 9.1875 C 92.382812 8.929688 91.09375 8.308594 87.84375 7.378906 L 87.636719 10.785156 C 89.339844 11.355469 90.988281 11.972656 92.640625 12.644531 Z M 92.640625 12.644531 "/>
<path style=" stroke:none;fill-rule:evenodd;fill:rgb(80%,0%,0%);fill-opacity:1;" d="M 87.738281 23.585938 L 87.535156 26.839844 C 89.234375 26.890625 90.9375 27.097656 92.640625 27.457031 L 92.847656 24.257812 C 91.09375 23.898438 89.390625 23.691406 87.738281 23.585938 Z M 68.65625 7.484375 L 69.171875 7.484375 L 68.140625 4.335938 C 66.539062 4.335938 64.890625 4.4375 63.1875 4.644531 L 64.167969 7.691406 C 65.664062 7.535156 67.160156 7.484375 68.65625 7.484375 Z M 71.132812 26.476562 L 72.316406 30.039062 C 73.8125 29.316406 75.308594 28.695312 76.804688 28.230469 L 75.671875 24.824219 C 73.917969 25.34375 72.421875 25.910156 71.132812 26.476562 Z M 47.714844 12.902344 L 45.390625 9.34375 C 44.101562 10.011719 42.761719 10.734375 41.367188 11.5625 L 43.742188 15.175781 C 45.082031 14.347656 46.371094 13.574219 47.714844 12.902344 Z M 58.285156 36.128906 L 60.761719 39.84375 C 61.640625 38.554688 62.671875 37.367188 63.804688 36.179688 L 61.484375 32.671875 C 60.296875 33.753906 59.214844 34.941406 58.285156 36.128906 Z M 50.808594 52.75 L 54.984375 56.050781 C 55.191406 54.039062 55.554688 52.027344 56.070312 50.011719 L 52.355469 47.070312 C 51.683594 48.980469 51.21875 50.890625 50.808594 52.75 Z M 28.214844 28.230469 L 24.554688 25.03125 C 23.210938 26.324219 21.921875 27.613281 20.734375 28.902344 L 24.707031 32.308594 C 25.789062 30.917969 26.976562 29.523438 28.214844 28.230469 Z M 12.636719 51.304688 L 6.707031 49.136719 C 5.726562 51.355469 4.640625 53.933594 4.125 55.328125 L 10.058594 57.496094 C 10.730469 55.742188 11.8125 53.214844 12.636719 51.304688 Z M 50.035156 65.859375 C 50.136719 68.59375 50.394531 70.8125 50.652344 72.359375 L 56.84375 74.582031 C 56.378906 72.566406 55.914062 70.296875 55.605469 67.871094 Z M 50.035156 65.859375 "/>
</g>
</svg>
